<?xml version="1.0" encoding="utf-8"?>
<!-- Generator: Adobe Illustrator 22.1.0, SVG Export Plug-In . SVG Version: 6.00 Build 0)  -->
<svg version="1.1" id="图层_1" xmlns="http://www.w3.org/2000/svg" xmlns:xlink="http://www.w3.org/1999/xlink" x="0px" y="0px"
	 viewBox="0 0 10.1 5.7" style="enable-background:new 0 0 10.1 5.7;" xml:space="preserve">
<style type="text/css">
	.st0{fill:#9E9894;}
</style>
<path class="st0" d="M8.4,0.3C8.5,0.1,8.8,0,9.1,0s0.5,0.1,0.7,0.3C10,0.5,10.1,0.7,10.1,1S10,1.5,9.8,1.8l-4,4C5.6,5.9,5.4,6,5.1,6
	S4.5,5.9,4.3,5.7l-4-3.9C0.1,1.5,0,1.3,0,1c0-0.3,0.1-0.5,0.3-0.7C0.5,0.1,0.7,0,1,0s0.5,0.1,0.7,0.3l3.3,3.2L8.4,0.3z"/>
</svg>
