<svg xmlns="http://www.w3.org/2000/svg" xmlns:xlink="http://www.w3.org/1999/xlink" version="1.1" x="0px" y="0px" viewBox="0 0 1200 1500" style="enable-background:new 0 0 1200 1200;" xml:space="preserve"><g><path d="M838,445.1c3.7,0.3,7.4-1,10.2-3.6s4.3-6.1,4.3-9.9c0-93.7-87.7-131.2-91.5-132.8c-4.3-1.8-9.2-1.2-13,1.5L706.5,330   c-27.7-13.7-52.9-16.8-75-9.3c-14.2,4.9-24.4,13.3-31.5,21.2c-7-7.9-17.3-16.4-31.5-21.2c-22.1-7.5-47.3-4.4-75,9.3l-41.6-29.7   c-3.8-2.7-8.7-3.3-13-1.5c-3.7,1.6-91.5,39.1-91.5,132.8c0,3.8,1.6,7.3,4.3,9.9s6.5,3.8,10.2,3.6l28.4-2.2   c-32.3,32.6-79.6,90-79.6,146.5c0,5,2.7,9.6,7.1,11.9c76.8,41,144.4,90.4,144.6,105.6c0,0.1,0,0.1,0,0.1c0,0.1,0,0.2,0,0.4   c-1.7,45.1,12.4,81.7,38.7,100.5c0.4,0.3,0.7,0.4,1.1,0.7c-2.4,1.3-4.5,2.6-5.9,3.7c-7.6,6-11,14.9-9.1,24.5   c4.7,24.5,43.3,48.9,108.8,68.6c1.3,0.4,2.6,0.6,3.9,0.6s2.6-0.2,3.9-0.6c65.5-19.7,104.2-44,108.8-68.6c1.8-9.6-1.5-18.5-9.1-24.5   c-1.4-1.1-3.5-2.4-5.9-3.7c0.4-0.2,0.7-0.4,1.1-0.7c26.3-18.8,40.4-55.4,38.7-100.5c0-0.1,0-0.2,0-0.4c0,0,0-0.1,0-0.1   c0.3-15.3,67.9-64.6,144.6-105.6c4.4-2.3,7.1-6.9,7.1-11.9c0-56.5-47.3-113.9-79.6-146.5L838,445.1z M600,878.3   c-64.9-20-83.3-39.4-85.9-45.5c5.5-3.4,24-11,39.2-16.7c0,0,0,0,0,0c0,0,0,0,0.1,0c21.4-8.1,37.6-17.2,46.6-22.6   c9,5.5,25.2,14.5,46.6,22.6c0,0,0,0,0.1,0c0,0,0,0,0,0c15.2,5.6,33.6,13.3,39.2,16.7C683.3,838.9,664.9,858.3,600,878.3z    M861.8,581.5c-37.1,20.1-99.7,56.8-131.5,90.2c-5-14-12.4-27.4-22.7-40c-41.2-50-29.7-97-22.4-115.9c3.7,3.3,8.8,6.3,15.9,8.2   c2.9,0.8,5.8,1.1,8.7,1.1c19.4,0,36.9-15.8,47.3-27.6c5.1,3.4,11.8,3.2,16.5-1.2c5.5-5.1,5.8-13.6,0.7-19.1   c-1.1-1.2-26.8-28.1-58.3-24.2c-20,2.5-36.9,16.2-50.2,40.6c-1.6,2.7-44,76.3,21,155.2c15,18.2,22.9,38.2,23.7,59.5   c1.3,35.3-9,64.3-27.5,77.6c-8.8,6.3-18.5,8.1-26.8,4.9c0,0-0.1,0-0.1,0c-29.3-11.2-48.1-24.3-48.3-24.5c-2.3-1.6-5.1-2.5-7.8-2.5   s-5.5,0.8-7.8,2.5c-0.2,0.1-19,13.3-48.3,24.5c0,0-0.1,0-0.1,0c-8.3,3.2-18,1.3-26.8-4.9c-18.5-13.2-28.8-42.2-27.5-77.6   c0.8-21.3,8.7-41.3,23.7-59.5c65-78.9,22.6-152.5,21-155.2c-13.3-24.5-30.2-38.1-50.2-40.6c-31.6-3.9-57.3,23-58.3,24.2   c-5.1,5.4-4.8,14,0.7,19.1c4.7,4.3,11.4,4.5,16.5,1.2c10.4,11.8,27.9,27.7,47.3,27.6c2.9,0,5.8-0.3,8.7-1.1   c7.1-1.9,12.2-4.9,15.9-8.2c7.4,18.8,18.8,65.8-22.4,115.9c-10.3,12.6-17.7,26-22.7,40c-31.8-33.4-94.4-70-131.5-90.2   c6.7-69,97.5-143.8,98.4-144.6c4.6-3.7,6.2-10,4-15.5c-2.2-5.5-7.7-8.8-13.6-8.5l-51.7,4c6.9-53.3,50.5-81.2,67.4-90l41.9,29.9   c4.2,3,9.8,3.3,14.4,0.8c23.6-13.1,44-16.9,60.5-11.5c19.7,6.5,28.1,25,28.1,25c2.1,4.9,7,8.1,12.3,8.1c0,0,0.1,0,0.1,0   c0,0,0.1,0,0.1,0c5.4,0,10.2-3.2,12.3-8.1c0-0.1,8.5-18.5,28.1-25c16.5-5.5,36.8-1.7,60.5,11.5c4.6,2.5,10.2,2.2,14.4-0.8   l41.9-29.9c16.9,8.9,60.4,36.7,67.4,90l-51.7-4c-5.9-0.4-11.4,3-13.6,8.5c-2.2,5.5-0.6,11.7,4,15.5   C764.4,437.7,855.2,512.6,861.8,581.5z M702.3,489.2c5.5-5.4,11.1-8.6,17.1-9.4c5.3-0.6,10.4,0.5,15,2.4   c-9.1,9.4-20,17.5-26.5,15.7c-1.7-0.4-4.7-1.4-5.6-3.1C701.7,493.3,702,490.8,702.3,489.2z M497.6,494.8c-0.8,1.7-3.8,2.7-5.6,3.1   c-6.5,1.8-17.4-6.2-26.5-15.7c4.7-1.8,9.8-3,15-2.4c6,0.8,11.6,4,17.1,9.4C498,490.8,498.3,493.3,497.6,494.8z"/><path d="M625.8,647.4c-5.2,3.7-15.5,5.5-25.8,5.6c-10.3,0-20.5-1.9-25.8-5.6c-5.2-3.7-11.4-4.7-17.3-2.7   c-3.3,1.1-10.5,3.4-19.2,19.4l-2.9-3.6c-4.6-5.8-13.1-6.8-19-2.2c-5.8,4.6-6.8,13.1-2.2,19l17,21.4c0.4,0.5,1,0.7,1.4,1.1   c0.5,0.5,1,0.8,1.5,1.2c1,0.7,1.9,1.3,3,1.7c0.6,0.2,1.2,0.3,1.9,0.4c0.9,0.2,1.7,0.6,2.7,0.6c0.8,0,1.5-0.1,2.3-0.2   c0.5-0.1,0.8-0.5,1.3-0.6c0.8-0.2,1.7-0.3,2.5-0.7c0,0,5.3-2.5,9.8-0.3c5.1,2.5,9.4,10.5,12,22.6c2.5,11.5,16.2,24.2,22,29.1   c2.5,2.1,5.6,3.2,8.7,3.2s6.2-1.1,8.7-3.2c5.8-4.9,19.6-17.5,22-29.1c2.6-12.1,6.9-20.1,12-22.6c4.6-2.2,9.8,0.3,9.8,0.3   c0.8,0.4,1.7,0.4,2.5,0.7c0.5,0.1,0.8,0.5,1.3,0.6c0.8,0.1,1.5,0.2,2.3,0.2c0.9,0,1.8-0.4,2.7-0.6c0.6-0.1,1.3-0.2,1.9-0.4   c1.1-0.4,2.1-1,3-1.7c0.6-0.4,1.1-0.8,1.5-1.2c0.4-0.4,1-0.6,1.4-1.1l17-21.4c4.6-5.8,3.7-14.3-2.2-19c-5.8-4.6-14.3-3.7-19,2.2   l-2.9,3.6c-8.6-16-15.9-18.3-19.2-19.4C637.1,642.8,631,643.7,625.8,647.4z M631.5,677.4c-13.4,6.2-22.5,20.2-27.2,41.5   c-0.4,1-2.1,3.2-4.4,5.7c-2.3-2.5-3.9-4.6-4.4-5.7c-4.6-21.3-13.7-35.3-27.2-41.5c-2-0.9-4-1.6-6-2.1c0.5-0.9,1.1-1.8,1.5-2.5   c9.6,5,22.8,7.4,36,7.4s26.4-2.5,36-7.4c0.4,0.7,1,1.6,1.5,2.5C635.5,675.8,633.5,676.4,631.5,677.4z"/><path d="M1026.1,512.1c3-3.5,4-8.4,2.6-12.8c-32.2-102.3-79.8-147.8-110.4-167.5l42.5-17.9c6.6-2.8,9.9-10.3,7.5-17   c-0.6-1.8-65.5-176.6-232.3-176.6c-42.5,0-88.1,11.4-135.9,33.9c-47.8-22.5-93.4-33.9-135.9-33.9c-166.9,0-231.7,174.9-232.3,176.6   c-2.4,6.8,0.9,14.2,7.5,17l42.5,17.9c-30.5,19.7-78.2,65.2-110.4,167.5c-1.4,4.4-0.4,9.2,2.6,12.8c3,3.5,7.5,5.3,12.2,4.7l35.6-5   c-9.7,27.7-27,77.1-38.9,112.5c-1.4,4.1-0.7,8.6,1.8,12.2c2.4,3.3,52.7,72.4,133.5,93l-49.5,38.2c-4.9,3.8-6.6,10.5-4.1,16.2   c2.4,5.3,56.1,122.6,162.6,138.5l-29.8,25.3c-3.8,3.3-5.6,8.4-4.4,13.3s4.9,8.8,9.8,10.1c1.4,0.4,139.6,36.9,186.2,103   c2.5,3.6,6.6,5.7,11,5.7s8.5-2.1,11-5.7c46.6-66,184.8-102.6,186.2-103c4.9-1.3,8.6-5.2,9.8-10.1s-0.6-10-4.4-13.3l-29.8-25.3   C879.3,906.5,933,789.2,935.4,783.8c2.6-5.7,0.9-12.4-4.1-16.2l-49.5-38.2c80.8-20.7,131.2-89.7,133.5-93c2.5-3.5,3.2-8,1.8-12.2   c-11.9-35.4-29.1-84.8-38.9-112.5l35.6,5C1018.6,517.4,1023.1,515.6,1026.1,512.1z M960.1,482c-4.7-0.6-9.4,1.2-12.3,4.8   c-3,3.7-3.8,8.6-2.3,13c0,0,26.3,74.5,43.8,126.2c-14.8,18-67.9,76.2-141.2,81.8c-5.6,0.4-10.3,4.2-11.9,9.6   c-1.6,5.4,0.3,11.2,4.7,14.6l65.1,50.3c-16.3,30.1-74.2,121.5-167.3,114.6c-5.9-0.4-11.3,2.9-13.5,8.4c-2.2,5.4-0.7,11.6,3.8,15.4   l37.2,31.6c-40.7,13.1-122.1,44-166.1,92.6c-44-48.6-125.4-79.5-166.1-92.6l37.2-31.6c4.5-3.8,6-10,3.8-15.4   c-2.2-5.4-7.6-8.8-13.5-8.4c-93.1,6.9-151-84.5-167.3-114.6l65.1-50.3c4.4-3.4,6.3-9.2,4.7-14.6c-1.6-5.3-6.3-9.2-11.9-9.6   c-73.3-5.6-126.4-63.8-141.2-81.8c17.5-51.7,43.8-126.1,43.8-126.2c1.6-4.4,0.7-9.4-2.3-13c-3-3.6-7.6-5.4-12.3-4.8l-35.9,5   C249.1,363.4,317,344.2,317.6,344c5.7-1.4,9.8-6.2,10.3-12c0.5-5.8-2.9-11.3-8.2-13.5l-57.5-24.2c16.6-37.1,76.6-147,202-147   c40.1,0,83.8,11.4,130,34c1.9,0.9,3.9,1.4,5.9,1.4s4-0.5,5.9-1.4c46.2-22.5,89.9-34,130-34c125.5,0,185.4,109.9,202,147l-57.5,24.2   c-5.4,2.3-8.7,7.7-8.2,13.5c0.5,5.8,4.6,10.7,10.3,12c0.6,0.2,68.5,19.4,113.5,143L960.1,482z"/></g><text x="0" y="1215" fill="#000000" font-size="5px" font-weight="bold" font-family="'Helvetica Neue', Helvetica, Arial-Unicode, Arial, Sans-serif">Created by Wahyu Prihantoro</text><text x="0" y="1220" fill="#000000" font-size="5px" font-weight="bold" font-family="'Helvetica Neue', Helvetica, Arial-Unicode, Arial, Sans-serif">from the Noun Project</text></svg>