<svg xmlns="http://www.w3.org/2000/svg" xmlns:xlink="http://www.w3.org/1999/xlink" version="1.1" x="0px" y="0px" viewBox="0 0 100 125" enable-background="new 0 0 100 100" xml:space="preserve"><path fill="#000000" d="M96.084,31.373c-0.004,0-0.008,0-0.012,0c-0.02,0-0.039,0-0.058,0.002c-0.202,0.011-0.39,0.083-0.542,0.197  c0,0,0,0-0.001,0.001c0,0-0.001,0-0.001,0.001c-0.043,0.032-0.084,0.068-0.123,0.108c0,0.001,0,0.001-0.001,0.002h-0.001  c-0.005,0.006-0.011,0.012-0.016,0.018l-5.594,6.142L74.51,26.005l-3.682-4.144c-0.191-0.215-0.464-0.336-0.748-0.336  c-0.034,0-0.068,0.002-0.104,0.006c-0.32,0.033-0.605,0.219-0.766,0.498l-2.891,5.065l-5.951,1.094H14.53  c-0.217,0-0.428,0.07-0.602,0.201l-8.3,6.256c-0.156,0.118-0.274,0.278-0.339,0.462L2.217,43.7c-0.11,0.307-0.063,0.647,0.124,0.913  c0.187,0.266,0.492,0.424,0.817,0.424h2.071v14.635c0,0.077,0.009,0.153,0.026,0.229l4.239,18.085  c0.106,0.452,0.509,0.771,0.974,0.771h7.412c0.318,0,0.618-0.151,0.806-0.408c0.188-0.257,0.243-0.588,0.148-0.892l-2.056-6.531  l7.021-9.47l18.915,0.845l4.177,15.713c0.116,0.438,0.513,0.743,0.966,0.743h6.422c0.553,0,1-0.447,1-1V67.322l2.878-4.792  l14.452-15.955l19.562,3.37c0.058,0.01,0.114,0.015,0.17,0.015c0.36,0,0.698-0.195,0.876-0.519l3.021-5.494  c0.07-0.128,0.112-0.271,0.121-0.418l0.706-11.021c0.006-0.044,0.009-0.089,0.009-0.135C97.074,31.823,96.633,31.377,96.084,31.373z   M68.155,25.897l0.993,1.189L67.28,27.43L68.155,25.897z M90.594,39.131l4.889-5.367l-0.56,8.729L90.594,39.131z M14.697,29.688  h45.508l11.39,15.772L57.138,61.422L6.729,59.193v-23.5L14.697,29.688z M73.271,27.348l-1.418,16.762L61.329,29.537L73.271,27.348z   M69.58,26.044l-0.557-0.666l0.557-0.972V26.044z M70.58,26.824v-2.983l2.28,2.565L70.58,26.824z M5.729,38.329v5.208H3.868  L5.729,38.329z M22.355,60.885L10.709,76.593L6.867,60.2L22.355,60.885z M15.489,71.825l1.71,5.432h-5.737L15.489,71.825z   M56.49,62.394l-8.453,14.092l-3.891-14.638L56.49,62.394z M53.779,68.856v8.4H48.74L53.779,68.856z M74.244,27.697l15.252,11.846  c0.009,0.009,0.012,0.021,0.021,0.028c0.02,0.019,0.045,0.026,0.067,0.04l5.134,3.987l-2.645,4.808l-19.301-3.325L74.244,27.697z"/><text x="0" y="115" fill="#000000" font-size="5px" font-weight="bold" font-family="'Helvetica Neue', Helvetica, Arial-Unicode, Arial, Sans-serif">Created by Lluisa Iborra</text><text x="0" y="120" fill="#000000" font-size="5px" font-weight="bold" font-family="'Helvetica Neue', Helvetica, Arial-Unicode, Arial, Sans-serif">from the Noun Project</text></svg>